<svg xmlns="http://www.w3.org/2000/svg" width="400" height="400" viewBox="0 0 160 160">
  <rect width="160" height="160" rx="24" fill="#0B1426"/>
  <path d="M12 100c20-32 60-32 80-8s52 4 64-16" fill="none" stroke="#10B981" stroke-width="8" stroke-linecap="round" stroke-linejoin="round" opacity="0.95"/>
  <g transform="translate(20,20) rotate(-20 60 60)">
    <path d="M94 24c-4 0-8 1-11 3l-13 8c-3 2-6 5-8 8l-6 10c-4 5-3 12 2 16 5 4 12 3 16-2l6-10c2-3 6-6 8-8l13-8c5-3 6-10 3-15-2-5-7-7-10-7z" fill="#E6F6F3"/>
    <rect x="70" y="60" width="8" height="40" rx="3" fill="#E6F6F3"/>
  </g>
</svg>
